<svg xmlns="http://www.w3.org/2000/svg" width="176.419" height="134.091" viewBox="0 0 176.419 134.091">
    
    <g id="svg_1" data-name="svg_1">
        <path d="M264.6,1828.866a33.07,33.07,0,0,0-39.463,25.1l-.025-.006a22.733,22.733,0,0,1-44.335-9.864l-.025-.005a33.07,33.07,0,1,0-64.561-14.365q-.186.836-.328,1.671a88.848,88.848,0,0,0,173.424,38.586q.226-.816.412-1.652A33.069,33.069,0,0,0,264.6,1828.866Z" transform="translate(-114.078 -1803.828)"/>
    </g>
    
    <g id="svg_2" data-name="svg_2">
        <path d="M549.507,1907.792l-7.63-79.392c-2.314-24.076-31.361-33.457-46.431-15l-10.773,13.2a32.689,32.689,0,0,1-46.741-.083L427.228,1813.4c-15.071-18.462-44.117-9.081-46.431,15l-7.63,79.392c-2.314,24.076,24.375,39.226,42.662,24.217l26.026-21.36c.01-.009,18.127-14.1,38.966,0h0l26.025,21.36C525.132,1947.018,551.821,1931.868,549.507,1907.792Zm-88.17-52.6h0l-.006-.008Z" transform="translate(-373.026 -1803.677)"/>
    </g>
    
    <g id="svg_3" data-name="svg_3">
        <path d="M202.321,1998c-48.779,0-88.321,30.187-88.321,67.424s39.543,67.424,88.321,67.424,88.321-30.187,88.321-67.424S251.1,1998,202.321,1998Zm0,88.321c-15.119,0-27.374-9.356-27.374-20.9s12.255-20.9,27.374-20.9,27.374,9.356,27.374,20.9S217.44,2086.321,202.321,2086.321Z" transform="translate(-114 -1998)"/>
    </g>
    
    <g id="svg_4" data-name="svg_4">
        <path d="M540.642,2014.417c-7.183-9.074-16.9-7.694-25.848,1.8l0-.028c-21.758,23.431-34.393,2.133-36.511-1.934-3.639-8.258-8.192-13.855-13.217-15.633-.046-.016-.091-.029-.137-.045-.326-.111-.654-.212-.984-.29-.106-.026-.212-.041-.318-.063-.28-.057-.56-.115-.843-.149s-.543-.042-.815-.053c-.119,0-.237-.024-.356-.024l-.021,0-.021,0c-.12,0-.237.019-.356.024-.272.011-.545.02-.815.053s-.563.092-.843.149c-.106.022-.212.037-.318.063-.33.078-.658.179-.984.29-.046.016-.091.028-.137.045-5.025,1.778-9.578,7.375-13.217,15.633-2.118,4.067-14.753,25.365-36.511,1.934l0,.028c-8.945-9.5-18.665-10.875-25.848-1.8-11.6,14.65-12.181,50.925-1.306,81.024,6.089,16.854,14.482,28.192,22.724,32.339v0s10.446,7.635,42.472,4.156a140.06,140.06,0,0,1,30.323,0c32.026,3.479,42.471-4.156,42.471-4.156v0c8.242-4.147,16.634-15.485,22.724-32.339C552.823,2065.343,552.238,2029.067,540.642,2014.417Z" transform="translate(-373.445 -1998)"/>
    </g>
    
    <g id="svg_5" data-name="svg_5">
        <path d="M807.854,1871.03c0,37.019-69.357,67.03-107.247,67.03S632,1908.049,632,1871.03,662.716,1804,700.607,1804,807.854,1834.01,807.854,1871.03Z" transform="translate(-632 -1804)"/>
    </g>
</svg>
