<svg xmlns="http://www.w3.org/2000/svg" width="100" height="100" viewBox="0 0 100 100">
    
    <g id="svg_1" data-name="svg_1">
        <path d="M50,100C23.115,80.033,9.015,61.869,3.233,46.666-12.258,5.926,31.989-13.557,50,10.493c18.011-24.05,62.258-4.567,46.767,36.174C90.985,61.869,76.885,80.033,50,100Z" transform="translate(0 0)"/>
    </g>
    
    <g id="svg_2" data-name="svg_2">
        <circle cx="50" cy="50" r="50"/>
    </g>
    
    <g id="svg_3" data-name="svg_3">
        <path d="M45.528,8.944a5,5,0,0,1,8.944,0l41.91,83.82A5,5,0,0,1,91.91,100H8.09a5,5,0,0,1-4.472-7.236Z"/>
    </g>
    
    <g id="svg_4" data-name="svg_4">
        <path d="M42.929,7.071a10,10,0,0,1,14.142,0L92.929,42.929a10,10,0,0,1,0,14.142L57.071,92.929a10,10,0,0,1-14.142,0L7.071,57.071a10,10,0,0,1,0-14.142Z"/>
    </g>
    
    <g id="svg_5" data-name="svg_5">
        <path id="Polygon_4" data-name="Polygon 4" d="M50,0l50,38.2L80.9,100H19.1L0,38.2Z"/>
    </g>
    
</svg>

