<svg xmlns="http://www.w3.org/2000/svg" width="176.292" height="134.848" viewBox="0 0 176.292 134.848">
  <path id="svg_4" data-name="svg_4" d="M540.642,2014.417c-7.183-9.074-16.9-7.694-25.848,1.8l0-.028c-21.758,23.431-34.393,2.133-36.511-1.934-3.639-8.258-8.192-13.855-13.217-15.633-.046-.016-.091-.029-.137-.045-.326-.111-.654-.212-.984-.29-.106-.026-.212-.041-.318-.063-.28-.057-.56-.115-.843-.149s-.543-.042-.815-.053c-.119,0-.237-.024-.356-.024l-.021,0-.021,0c-.12,0-.237.019-.356.024-.272.011-.545.02-.815.053s-.563.092-.843.149c-.106.022-.212.037-.318.063-.33.078-.658.179-.984.29-.046.016-.091.028-.137.045-5.025,1.778-9.578,7.375-13.217,15.633-2.118,4.067-14.753,25.365-36.511,1.934l0,.028c-8.945-9.5-18.665-10.875-25.848-1.8-11.6,14.65-12.181,50.925-1.306,81.024,6.089,16.854,14.482,28.192,22.724,32.339v0s10.446,7.635,42.472,4.156a140.06,140.06,0,0,1,30.323,0c32.026,3.479,42.471-4.156,42.471-4.156v0c8.242-4.147,16.634-15.485,22.724-32.339C552.823,2065.343,552.238,2029.067,540.642,2014.417Z" transform="translate(-373.445 -1998)"/>
</svg>
