<svg xmlns="http://www.w3.org/2000/svg" width="176.622" height="134.314" viewBox="0 0 176.622 134.314">
  <path id="svg_2" data-name="svg_2" d="M549.507,1907.792l-7.63-79.392c-2.314-24.076-31.361-33.457-46.431-15l-10.773,13.2a32.689,32.689,0,0,1-46.741-.083L427.228,1813.4c-15.071-18.462-44.117-9.081-46.431,15l-7.63,79.392c-2.314,24.076,24.375,39.226,42.662,24.217l26.026-21.36c.01-.009,18.127-14.1,38.966,0h0l26.025,21.36C525.132,1947.018,551.821,1931.868,549.507,1907.792Zm-88.17-52.6h0l-.006-.008Z" transform="translate(-373.026 -1803.677)"/>
</svg>
