<svg xmlns="http://www.w3.org/2000/svg" width="100" height="100" viewBox="0 0 100 100">
    
    <!--    <g id="svg_1" data-name="svg_1">-->
    <!--        <path d="M50,100C23.115,80.033,9.015,61.869,3.233,46.666-12.258,5.926,31.989-13.557,50,10.493c18.011-24.05,62.258-4.567,46.767,36.174C90.985,61.869,76.885,80.033,50,100Z" transform="translate(0 0)"/>-->
    <!--    </g>-->
    
    <g id="svg_1" data-name="svg_1">
        <circle cx="50" cy="50" r="50"/>
    </g>
    
    <g id="svg_2" data-name="svg_2">
        <path d="M45.528,8.944a5,5,0,0,1,8.944,0l41.91,83.82A5,5,0,0,1,91.91,100H8.09a5,5,0,0,1-4.472-7.236Z"/>
    </g>
    
    <g id="svg_3" data-name="svg_3">
        <path d="M42.929,7.071a10,10,0,0,1,14.142,0L92.929,42.929a10,10,0,0,1,0,14.142L57.071,92.929a10,10,0,0,1-14.142,0L7.071,57.071a10,10,0,0,1,0-14.142Z"/>
    </g>
    
    <g id="svg_4" data-name="svg_4">
        <path  d="M50,0l50,38.2L80.9,100H19.1L0,38.2Z"/>
    </g>
    
    
    <g id="svg_5" data-name="svg_5" transform="translate(2.59 39.393)">
        <path d="M76.91,6.839,62.536,21.213l-.321-.321-.321.321L47.471,6.791,33.049,21.213l-.322-.322-.322.322L17.97,6.778,3.535,21.213,0,17.678,17.678,0l.293.293L18.264,0,32.727,14.463,47.191,0l.28.28L47.75,0,62.214,14.464,76.677,0l.232.232L77.142,0,94.82,17.678l-3.535,3.535Z"/>
        <rect id="Rectangle_8" data-name="Rectangle 8" width="100" height="100" fill="none"/>
    </g>
    
    
    
    
    
</svg>


